# xmcd CD database file
#
# Track frame offsets:
#	180
#	23691
#	41866
#	57892
#	84021
#	102582
#	130246
#	146601
#	165271
#	183664
#	201293
#
# Disc length: 3022 seconds
#
# Revision: 0
# Processed by: cddbd v1.5.1PL0 Copyright (c) Steve Scherf et al.
# Submitted via: CDex 1.51
#
DISCID=910bcc0b
DTITLE=Karel Roessingh Trio - Cat Fud
DYEAR=1900
DGENRE=Jazz
TTITLE0=e and n
TTITLE1=dickie's dilemma
TTITLE2=septamba
TTITLE3=tuesday evening
TTITLE4=mango tango
TTITLE5=stay in touch
TTITLE6=goin' to 'murika
TTITLE7=thift shopping
TTITLE8=st. maarten
TTITLE9=cat fud
TTITLE10=our pal cal
EXTD=
EXTT0=
EXTT1=
EXTT2=
EXTT3=
EXTT4=
EXTT5=
EXTT6=
EXTT7=
EXTT8=
EXTT9=
EXTT10=
PLAYORDER=
